<?xml version="1.0" encoding="UTF-8"?>
<svg width="9px" height="7px" viewBox="0 0 9 7" version="1.1" xmlns="http://www.w3.org/2000/svg" xmlns:xlink="http://www.w3.org/1999/xlink">
    <!-- Generator: Sketch 49.3 (51167) - http://www.bohemiancoding.com/sketch -->
    <title>Page-1 Copy</title>
    <desc>Created with Sketch.</desc>
    <defs></defs>
    <g id="Landing-page" stroke="none" stroke-width="1" fill="none" fill-rule="evenodd">
        <g id="landing2-copy" transform="translate(-1296.000000, -3830.000000)" fill="#DCDCDC" fill-rule="nonzero">
            <g id="Group-7" transform="translate(1296.500000, 3830.500000)">
                <path d="M1.00002154,6.51086696 L1.00002154,-0.519650358 C1.00002154,-0.691819773 1.08680927,-0.849146365 1.23012625,-0.931838602 C1.37782324,-1.02979672 1.5645387,-1.02131531 1.70427415,-0.911907307 L6.78971018,2.59296147 C6.92626101,2.67438124 7.00707643,2.8317083 6.99951181,2.99878877 C7.00269642,3.16629278 6.92307639,3.32361984 6.78971018,3.41140055 L1.70427415,6.90481991 C1.63142027,6.95782791 1.54742024,6.98963215 1.45863866,6.99938556 C1.37623093,7.0044745 1.29541551,6.97775874 1.22853395,6.92644721 C1.08521696,6.84375497 0.998429231,6.68303591 1.00002154,6.51086696 Z" id="Page-1-Copy" transform="translate(4.000000, 3.000000) rotate(-270.000000) translate(-4.000000, -3.000000) "></path>
            </g>
        </g>
    </g>
</svg>