<?xml version="1.0" encoding="UTF-8"?>
<svg width="20px" height="20px" viewBox="0 0 20 20" version="1.1" xmlns="http://www.w3.org/2000/svg" xmlns:xlink="http://www.w3.org/1999/xlink">
    <!-- Generator: Sketch 49.3 (51167) - http://www.bohemiancoding.com/sketch -->
    <title>linkedin</title>
    <desc>Created with Sketch.</desc>
    <defs></defs>
    <g id="Landing-page" stroke="none" stroke-width="1" fill="none" fill-rule="evenodd">
        <g id="landing2-copy" transform="translate(-674.000000, -4552.000000)" fill="#898989" fill-rule="nonzero">
            <g id="Group-3" transform="translate(584.000000, 4533.000000)">
                <g id="linkedin" transform="translate(90.500000, 19.000000)">
                    <path d="M3.9,15.6 L3.9,7.4295 L6.396,7.4295 L6.396,15.6 L3.9,15.6 M6.474,5.1675 C6.4935,5.8695 5.967,6.435 5.1285,6.435 C4.3485,6.435 3.8415,5.8695 3.8415,5.1675 C3.8415,4.446 4.368,3.9 5.1675,3.9 C5.967,3.9 6.474,4.446 6.474,5.1675 M13.026,15.6 L13.026,11.076 C13.026,10.023 12.675,9.3015 11.7585,9.3015 C11.076,9.3015 10.6665,9.789 10.4715,10.257 C10.413,10.4325 10.3935,10.6665 10.3935,10.9005 L10.3935,15.6 L7.8975,15.6 L7.8975,10.0425 C7.8975,9.0285 7.8585,8.1705 7.839,7.4295 L10.0035,7.4295 L10.1205,8.58 L10.1595,8.58 C10.491,8.034 11.31,7.254 12.6555,7.254 C14.2935,7.254 15.5415,8.3655 15.5415,10.7835 L15.5415,15.6 L13.026,15.6 M19.5,1.716 C19.5,0.78 18.72,0 17.784,0 L1.716,0 C0.78,0 0,0.78 0,1.716 L0,17.784 C0,18.72 0.78,19.5 1.716,19.5 L17.784,19.5 C18.72,19.5 19.5,18.72 19.5,17.784 L19.5,1.716" id="Shape"></path>
                </g>
            </g>
        </g>
    </g>
</svg>