<?xml version="1.0" encoding="UTF-8"?>
<svg width="21px" height="17px" viewBox="0 0 21 17" version="1.1" xmlns="http://www.w3.org/2000/svg" xmlns:xlink="http://www.w3.org/1999/xlink">
    <!-- Generator: Sketch 49.3 (51167) - http://www.bohemiancoding.com/sketch -->
    <title>email-download</title>
    <desc>Created with Sketch.</desc>
    <defs></defs>
    <g id="Landing-page" stroke="none" stroke-width="1" fill="none" fill-rule="evenodd">
        <g id="landing2-copy" transform="translate(-602.000000, -4553.000000)" fill="#898989" fill-rule="nonzero">
            <g id="Group-3" transform="translate(584.000000, 4533.000000)">
                <g id="email-download" transform="translate(18.009479, 20.425000)">
                    <g id="Filled_Icons">
                        <g id="Group">
                            <path d="M10.4265403,6.2308125 L18.97109,0.11364375 C18.7390995,0.04833125 18.4992891,0 18.2464455,0 L2.60663507,0 C2.35379147,0 2.11398104,0.04833125 1.88199052,0.11495 L10.4265403,6.2308125 Z" id="Shape"></path>
                            <path d="M11.1837678,8.89948125 C10.9569905,9.06145625 10.6924171,9.14375 10.4265403,9.14375 C10.1606635,9.14375 9.89609005,9.0627625 9.6693128,8.89948125 L0.0716824645,2.02860625 C0.0286729858,2.21670625 0,2.41003125 0,2.6125 L0,13.0625 C0,14.5019875 1.16907583,15.675 2.60663507,15.675 L18.2464455,15.675 C19.6840047,15.675 20.8530806,14.5019875 20.8530806,13.0625 L20.8530806,2.6125 C20.8530806,2.4113375 20.8257109,2.21670625 20.7813981,2.0299125 L11.1837678,8.89948125 Z" id="Shape"></path>
                        </g>
                    </g>
                </g>
            </g>
        </g>
    </g>
</svg>