<?xml version="1.0" encoding="UTF-8"?>
<svg width="11px" height="9px" viewBox="0 0 11 9" version="1.1" xmlns="http://www.w3.org/2000/svg" xmlns:xlink="http://www.w3.org/1999/xlink">
    <!-- Generator: Sketch 49.3 (51167) - http://www.bohemiancoding.com/sketch -->
    <title>Path Copy</title>
    <desc>Created with Sketch.</desc>
    <defs></defs>
    <g id="Landing-page" stroke="none" stroke-width="1" fill="none" fill-rule="evenodd">
        <g id="landing2-copy" transform="translate(-478.000000, -2267.000000)" fill="#5BAFD9">
            <g id="Group-6" transform="translate(433.500000, 2194.000000)">
                <g id="Group-5" transform="translate(0.000000, 63.500000)">
                    <path d="M55.1142474,11.2100123 C54.8453753,11.5973856 54.4924806,11.9679167 54.1059768,12.2710784 L54.1059768,12.5068709 C54.1059768,15.2184845 52.0726311,18.3006291 48.3588344,18.3006291 C47.2161277,18.3006291 46.1574435,17.9637827 45.25,17.3743015 C45.4012406,17.3911438 45.5692857,17.3911438 45.7373308,17.3911438 C46.6783834,17.3911438 47.5522179,17.087982 48.2412028,16.5321855 C47.3505638,16.5153431 46.6111653,15.9258619 46.3590977,15.1174306 C46.4935337,15.1511152 46.5943608,15.1679575 46.7287969,15.1679575 C46.930451,15.1679575 47.0984961,15.1342729 47.2665412,15.1005882 C46.3422932,14.8984804 45.6365037,14.090049 45.6365037,13.1131944 L45.6365037,13.0963521 C45.9053759,13.2310907 46.2078571,13.3321446 46.5775563,13.3321446 C46.006203,12.9784559 45.6701128,12.35529 45.6701128,11.6479126 C45.6701128,11.2605392 45.7709398,10.9236928 45.9389849,10.620531 C46.9472555,11.8668627 48.4260524,12.6752941 50.1065034,12.7426634 C50.0728944,12.6079248 50.0560899,12.4395016 50.0560899,12.3047631 C50.0560899,11.1763276 50.9635334,10.25 52.0726311,10.25 C52.6775935,10.25 53.1817288,10.5026348 53.551428,10.8900082 C54.0051498,10.8226389 54.4588715,10.620531 54.8453753,10.4184232 C54.6773302,10.8731658 54.374849,11.2605392 53.9547362,11.5300163 C54.374849,11.4794894 54.7613527,11.3615931 55.1142474,11.2100123 Z" id="Path-Copy"></path>
                </g>
            </g>
        </g>
    </g>
</svg>