<?xml version="1.0" encoding="UTF-8"?>
<svg width="21px" height="17px" viewBox="0 0 21 17" version="1.1" xmlns="http://www.w3.org/2000/svg" xmlns:xlink="http://www.w3.org/1999/xlink">
    <!-- Generator: Sketch 49.3 (51167) - http://www.bohemiancoding.com/sketch -->
    <title>Path Copy</title>
    <desc>Created with Sketch.</desc>
    <defs></defs>
    <g id="Landing-page" stroke="none" stroke-width="1" fill="none" fill-rule="evenodd">
        <g id="landing2-copy" transform="translate(-817.000000, -4553.000000)" fill="#898989">
            <g id="Group-3" transform="translate(584.000000, 4533.000000)">
                <path d="M253.228495,22.4200245 C252.690751,23.1947712 251.984961,23.9358333 251.211954,24.5421569 L251.211954,25.0137418 C251.211954,30.436969 247.145262,36.6012582 239.717669,36.6012582 C237.432255,36.6012582 235.314887,35.9275654 233.5,34.7486029 C233.802481,34.7822876 234.138571,34.7822876 234.474662,34.7822876 C236.356767,34.7822876 238.104436,34.1759641 239.482406,33.0643709 C237.701128,33.0306863 236.222331,31.8517239 235.718195,30.2348611 C235.987067,30.3022304 236.188722,30.335915 236.457594,30.335915 C236.860902,30.335915 237.196992,30.2685458 237.533082,30.2011765 C235.684586,29.7969608 234.273007,28.180098 234.273007,26.2263889 L234.273007,26.1927042 C234.810752,26.4621814 235.415714,26.6642892 236.155113,26.6642892 C235.012406,25.9569118 234.340226,24.7105801 234.340226,23.2958252 C234.340226,22.5210784 234.54188,21.8473856 234.87797,21.2410621 C236.894511,23.7337255 239.852105,25.3505882 243.213007,25.4853268 C243.145789,25.2158497 243.11218,24.8790033 243.11218,24.6095261 C243.11218,22.3526552 244.927067,20.5 247.145262,20.5 C248.355187,20.5 249.363458,21.0052696 250.102856,21.7800163 C251.0103,21.6452778 251.917743,21.2410621 252.690751,20.8368464 C252.35466,21.7463317 251.749698,22.5210784 250.909472,23.0600327 C251.749698,22.9589788 252.522705,22.7231863 253.228495,22.4200245 Z" id="Path-Copy"></path>
            </g>
        </g>
    </g>
</svg>