<?xml version="1.0" encoding="UTF-8"?>
<svg width="140px" height="58px" viewBox="0 0 140 58" version="1.1" xmlns="http://www.w3.org/2000/svg" xmlns:xlink="http://www.w3.org/1999/xlink">
    <!-- Generator: Sketch 49.3 (51167) - http://www.bohemiancoding.com/sketch -->
    <title>Page 1</title>
    <desc>Created with Sketch.</desc>
    <defs>
        <polygon id="path-1" points="3.57757781e-05 0.00658232558 57.6819489 0.00658232558 57.6819489 58 3.57757781e-05 58"></polygon>
        <polygon id="path-3" points="0 58 140 58 140 0 0 0"></polygon>
    </defs>
    <g id="Landing-page" stroke="none" stroke-width="1" fill="none" fill-rule="evenodd">
        <g id="landing2-copy" transform="translate(-130.000000, -16.000000)">
            <g id="Page-1" transform="translate(130.000000, 16.000000)">
                <g id="Group-3">
                    <mask id="mask-2" fill="white">
                        <use xlink:href="#path-1"></use>
                    </mask>
                    <g id="Clip-2"></g>
                    <path d="M57.6819489,29.0032552 C57.6819489,45.0177296 44.7693973,58.000018 28.8409476,58.000018 C12.9124979,58.000018 3.57757781e-05,45.0177296 3.57757781e-05,29.0032552 C3.57757781e-05,12.9887808 12.9124979,0.00658232558 28.8409476,0.00658232558 C44.7693973,0.00658232558 57.6819489,12.9887808 57.6819489,29.0032552" id="Fill-1" fill="#FFFFFF" mask="url(#mask-2)"></path>
                </g>
                <path d="M76.8499306,19.5804629 C76.8499306,20.3168811 76.6606078,21.0344961 76.2871801,21.7134451 C75.914622,22.3900988 75.4078769,22.9209167 74.7811201,23.2913328 C74.1535806,23.662102 73.4749057,23.8501349 72.7639668,23.8501349 C72.0382438,23.8501349 71.3400018,23.6614841 70.688373,23.2893907 C70.039701,22.9190629 69.5341734,22.4095201 69.1858786,21.774622 C68.8355835,21.136899 68.658001,20.4123983 68.658001,19.621071 C68.658001,18.3876454 69.0462997,17.3875397 69.8449863,16.5636376 C70.6427163,15.7411479 71.5909828,15.3412469 72.7439648,15.3412469 C73.4874287,15.3412469 74.1793222,15.5291033 74.8001654,15.8995194 C75.4210956,16.2702003 75.9234054,16.7932497 76.2929198,17.4540133 C76.662521,18.1156598 76.8499306,18.831156 76.8499306,19.5804629 M72.8641505,13.4390244 C71.9374513,13.4390244 71.0546696,13.6227317 70.2405032,13.9849379 C70.0767481,14.0577675 69.9132539,14.1402195 69.7548036,14.2299104 C68.4294569,14.9793938 67.4274461,16.3394105 67.0056658,17.9611726 C66.9751411,18.0787594 66.9475732,18.1967876 66.9238318,18.3120792 C66.8443458,18.6982971 66.8341709,19.0996106 66.8341709,19.4060248 L66.8341709,29.7073171 L68.7581847,29.7073171 L68.7581847,23.9121946 C69.2546679,24.4229733 69.7968077,24.8248165 70.3762556,25.1105736 C71.1428521,25.4891996 71.9933698,25.6812051 72.9041544,25.6812051 C74.5190945,25.6812051 75.9197529,25.0762333 77.0671692,23.8831511 C78.1993666,22.7062237 78.7802929,21.2617246 78.7937724,19.5897321 C78.8068172,17.9634678 78.1728423,16.3722501 77.0544723,15.2241898 C75.9006206,14.0396705 74.4908309,13.4390244 72.8641505,13.4390244" id="Fill-4" fill="#413F48"></path>
                <path d="M82.862069,19.841724 C82.862069,18.6299206 83.260599,17.5816842 84.0465645,16.7261806 C84.8415441,15.8611683 85.7633288,15.4406852 86.8645299,15.4406852 C87.9644309,15.4406852 88.8758146,15.8604369 89.6497323,16.723072 L89.6594399,16.7339521 C90.0975801,17.2262986 90.3921871,17.8015715 90.5113648,18.3976903 C90.5721237,18.701144 90.6152876,19.0144721 90.6396432,19.3289888 C90.6965018,20.0607885 90.5547021,20.7992627 90.2297589,21.4644105 C89.4276719,23.1062972 88.3568936,23.9596979 86.956145,24.0735273 C86.0430278,24.1479508 85.0892602,23.816154 84.339178,23.1640805 C83.9725443,22.8452667 83.6801041,22.4920754 83.4702649,22.1142897 C83.0666211,21.3884328 82.862069,20.6238099 82.862069,19.841724 M86.8645299,26.1180685 L86.8863719,26.1170627 C88.648467,25.9602616 89.9764956,25.3102909 90.8469689,24.1815053 L90.8469689,26.1707317 L92.8036486,26.1707317 L92.8484594,25.9551415 C92.8599871,25.8997354 92.8742884,25.8307977 92.8544399,19.8206953 C92.8544399,18.1433341 92.314197,16.6744316 91.2488791,15.4549481 C90.0911662,14.1173381 88.6160507,13.4390244 86.8645299,13.4390244 C85.1123157,13.4390244 83.6369402,14.1211781 82.4785338,15.4673825 C81.4341046,16.6930832 80.9045226,18.1576885 80.9045226,19.8206953 C80.9045226,21.4926622 81.4636606,22.9743648 82.5663352,24.2246599 C83.6736902,25.4810808 85.1198564,26.1180685 86.8645299,26.1180685" id="Fill-6" fill="#413F48"></path>
                <path d="M110.63175,21.4644105 C109.829657,23.1062972 108.758871,23.9596979 107.358112,24.0735273 C106.445075,24.1476765 105.491214,23.8162454 104.741213,23.1639891 C104.374663,22.8453581 104.082308,22.4922583 103.872207,22.1142897 C103.46856,21.3884328 103.264007,20.6238099 103.264007,19.841724 C103.264007,18.6299206 103.662539,17.5816842 104.448511,16.7261806 C105.243496,15.8611683 106.165287,15.4406852 107.266496,15.4406852 C108.366405,15.4406852 109.277796,15.8604369 110.051719,16.723072 L110.061427,16.7339521 C110.499657,17.2262986 110.794179,17.8015715 110.913358,18.3976903 C110.974204,18.701784 111.017368,19.0151121 111.041637,19.3289888 C111.098496,20.0607885 110.956695,20.7992627 110.63175,21.4644105 Z M111.248964,26.1707317 L113.205658,26.1707317 L113.250469,25.9551415 C113.261997,25.8997354 113.276299,25.8307977 113.25645,19.8206039 C113.25645,18.1433341 112.716203,16.6744316 111.650877,15.4549481 C110.493156,14.1173381 109.01803,13.4390244 107.266496,13.4390244 C105.51427,13.4390244 104.03897,14.1211781 102.880469,15.4673825 C101.836032,16.6929003 101.306533,18.1575971 101.306533,19.8206039 C101.306533,21.4927536 101.865588,22.9744562 102.968271,24.2246599 C104.075634,25.4810808 105.52181,26.1180685 107.266496,26.1180685 L107.288339,26.1170627 C109.050447,25.9602616 110.378485,25.3102909 111.248964,24.1815053 L111.248964,26.1707317 Z" id="Fill-8" fill="#413F48"></path>
                <mask id="mask-4" fill="white">
                    <use xlink:href="#path-3"></use>
                </mask>
                <g id="Clip-11"></g>
                <polygon id="Fill-10" fill="#413F48" mask="url(#mask-4)" points="115.376884 25.4634146 117.487437 25.4634146 117.487437 9.19512195 115.376884 9.19512195"></polygon>
                <polygon id="Fill-12" fill="#413F48" mask="url(#mask-4)" points="120.301508 25.4634146 122.41206 25.4634146 122.41206 9.19512195 120.301508 9.19512195"></polygon>
                <path d="M126.058725,18.3663226 C126.328127,17.529667 126.69872,16.8848004 127.16207,16.446596 C127.890782,15.7635369 128.774442,15.4172333 129.788279,15.4172333 C130.406665,15.4172333 131.005726,15.5562321 131.568686,15.8302821 C132.129186,16.1035975 132.58428,16.465325 132.920967,16.9052738 C133.206619,17.2785693 133.438075,17.7689213 133.610854,18.3663226 L126.058725,18.3663226 Z M129.848975,26.1707317 C130.694074,26.1707317 131.464158,26.0347626 132.137882,25.766772 C132.813013,25.4986897 133.429905,25.1017993 133.971608,24.587118 C134.512872,24.0729875 134.988783,23.3873577 135.386167,22.5494168 L135.499654,22.3099789 L133.859614,21.3948266 L133.73049,21.6189324 C133.308073,22.352211 132.915872,22.884887 132.56478,23.2021789 C132.215796,23.5177265 131.784946,23.7767198 131.284351,23.9719057 C130.783845,24.1673671 130.260062,24.2664291 129.72767,24.2664291 C128.625115,24.2664291 127.724239,23.870365 126.97348,23.0554681 C126.283944,22.3076837 125.898243,21.3469941 125.824634,20.1966271 L135.778894,20.1966271 L135.777753,19.9199147 C135.77055,18.285347 135.343038,16.8978373 134.507162,15.7960373 C133.326958,14.2319789 131.735844,13.4390244 129.778177,13.4390244 C127.86039,13.4390244 126.309769,14.214627 125.170322,15.7436143 C124.27375,16.9367643 123.819095,18.3173883 123.819095,19.8471102 C123.819095,21.4656114 124.354562,22.9365754 125.410386,24.2192392 C126.476136,25.5141136 127.969573,26.1707317 129.848975,26.1707317 Z" id="Fill-13" fill="#413F48" mask="url(#mask-4)"></path>
                <polygon id="Fill-14" fill="#413F48" mask="url(#mask-4)" points="137.889447 25.4634146 140 25.4634146 140 9.19512195 137.889447 9.19512195"></polygon>
                <path d="M76.7761683,37.5239193 C77.1586292,38.2141773 77.352567,38.9961733 77.352567,39.8479482 C77.352567,41.1602278 76.9163198,42.2711557 76.0559181,43.1498803 C75.1959678,44.0285142 74.1297159,44.4740468 72.8867632,44.4740468 C72.0741917,44.4740468 71.3178433,44.2705174 70.6386549,43.8689936 C69.9590152,43.4672883 69.4102317,42.9015254 69.007646,42.1874028 C68.6046092,41.4736432 68.4002931,40.7006305 68.4002931,39.8897793 C68.4002931,39.0930834 68.6064141,38.3181652 69.0130608,37.5866206 C69.4189855,36.8556204 69.9728228,36.2812372 70.6593211,35.8794412 C71.3454585,35.4778266 72.0879091,35.2742064 72.8660067,35.2742064 C73.6579119,35.2742064 74.4198556,35.4779174 75.1305397,35.8797134 C75.8401409,36.2812372 76.3938879,36.8343873 76.7761683,37.5239193 Z M77.2486041,36.0228101 C76.6499147,35.3097764 75.9764118,34.7673337 75.2451516,34.4094557 C74.4795079,34.0354261 73.6301162,33.8457798 72.7205308,33.8457798 C71.1081125,33.8457798 69.7090349,34.444572 68.561923,35.6255511 C67.4154428,36.8064394 66.8341709,38.2587306 66.8341709,39.9420454 C66.8341709,41.5979568 67.4190526,43.0327352 68.572572,44.206455 C69.7259108,45.3803564 71.1355472,45.9756098 72.762134,45.9756098 C73.6927467,45.9756098 74.5783268,45.7932227 75.3942374,45.4335299 C76.2103284,45.0740187 76.972633,44.4988188 77.6649973,43.7170951 C78.2889554,42.6714999 78.6687089,41.6282639 78.7939698,40.6108888 L78.7939698,29.7073171 L77.2486041,29.7073171 L77.2486041,36.0228101 Z" id="Fill-15" fill="#413F48" mask="url(#mask-4)"></path>
                <path d="M88.3984647,43.9387423 C87.7328131,44.3163598 86.9866624,44.5077771 86.1809496,44.5077771 C85.3886835,44.5077771 84.6478573,44.3162698 83.9788666,43.9386524 C83.3101467,43.5613048 82.7721926,43.0129589 82.3798949,42.3087266 C81.9871461,41.6045843 81.787974,40.8363964 81.787974,40.0255713 C81.787974,38.7729032 82.2243115,37.6889846 83.0848936,36.8038594 C83.945205,35.9193638 84.9868198,35.4707744 86.1809496,35.4707744 C87.3749893,35.4707744 88.4166041,35.9193638 89.2769154,36.8038594 C90.1375878,37.6889846 90.573835,38.7729032 90.573835,40.0255713 C90.573835,40.8359466 90.3764679,41.6041346 89.9871483,42.3089065 C89.5980093,43.0130488 89.0634846,43.5613947 88.3984647,43.9387423 M86.1809496,33.9512195 C84.422875,33.9512195 82.9429373,34.5974329 81.7820178,35.8723191 C80.7330029,37.0355751 80.201005,38.4259593 80.201005,40.0048824 C80.201005,41.5910916 80.7628742,42.9973073 81.8709097,44.1845804 C82.9794868,45.372933 84.4295532,45.9756098 86.1809496,45.9756098 C87.9251265,45.9756098 89.3734782,45.373023 90.4856651,44.1845804 C91.5972202,42.9968575 92.160804,41.5906418 92.160804,40.0048824 C92.160804,38.4194828 91.6288964,37.0255905 90.5795205,35.8617047 C89.4186913,34.5939248 87.9387536,33.9512195 86.1809496,33.9512195" id="Fill-16" fill="#413F48" mask="url(#mask-4)"></path>
                <path d="M107.779576,34.5613445 C107.060112,34.1567741 106.299121,33.9515879 105.512255,33.9515879 L105.510387,33.9515879 C104.449287,34.0807963 103.789845,34.2391985 103.498182,34.4336097 C103.073315,34.6608985 102.722519,34.8948182 102.451664,35.1326058 C101.942588,35.6993544 101.591526,36.2060575 101.406658,36.6407428 C101.106015,35.9792291 100.804659,35.4724339 100.510062,35.1331583 C100.199282,34.7756481 99.7556521,34.4860114 99.1916227,34.2721683 C98.6294608,34.0592462 98.0661428,33.9512195 97.516252,33.9512195 C96.6654507,33.9724933 95.9995173,34.1391841 95.5398818,34.4447531 C94.8401582,34.842877 94.2663475,35.3866941 93.8356116,36.0596274 C93.3140868,36.7985004 92.987389,37.9769396 92.8643216,39.5656592 L92.8643216,45.9756098 L94.3870141,45.9756098 L94.3870141,40.9959764 C94.3325052,39.4265967 94.4417897,38.2784565 94.7114888,37.5835126 C94.9796761,36.8921603 95.3551918,36.3654728 95.8276319,36.018185 C96.2992718,35.6720023 96.8712151,35.4963784 97.527545,35.4963784 C98.1363908,35.4963784 98.6515133,35.645295 99.058774,35.9388918 C99.4679909,36.2346067 99.8256333,36.6368748 100.121653,37.1343685 C100.41625,37.6304807 100.565638,38.5841176 100.565638,39.9687561 L100.565638,45.9756098 L102.098557,45.9756098 L102.09829,40.0373664 C102.253547,38.5467273 102.485188,37.5728296 102.785387,37.1440384 C103.558471,36.1274089 104.502195,35.5730009 105.587305,35.4963784 C106.162627,35.4963784 106.660943,35.6382958 107.068204,35.9181705 C107.474664,36.1979532 107.76526,36.5705669 107.931899,37.0257892 C108.099872,37.4856163 108.185058,38.3436593 108.185058,39.57625 L108.185058,45.9756098 L109.748744,45.9756098 L109.748744,39.57625 C109.748744,38.1277902 109.601134,37.0210003 109.310183,36.28664 C109.017008,35.5480434 108.502064,34.9674806 107.779576,34.5613445" id="Fill-17" fill="#413F48" mask="url(#mask-4)"></path>
                <path d="M121.822572,37.831519 C121.887684,38.1389066 121.933731,38.4551612 121.959722,38.7716844 C122.022136,39.5302117 121.86664,40.2953668 121.510141,40.9843915 C120.651358,42.6442129 119.447049,43.5447009 117.930937,43.661046 C116.926282,43.737266 115.878098,43.394948 115.05529,42.7196267 C114.654273,42.3903852 114.333747,42.024422 114.102616,41.6317684 C113.663377,40.8858698 113.4407,40.0986817 113.4407,39.2922371 C113.4407,38.0450424 113.875532,36.9656927 114.733145,36.0843716 C115.590578,35.2035879 116.628689,34.7570161 117.818609,34.7570161 C119.00817,34.7570161 120.035669,35.2034984 120.872057,36.0835656 L120.878263,36.0901038 C121.363818,36.6052826 121.690369,37.2073395 121.822572,37.831519 M122.202005,35.1462663 C121.045001,33.883935 119.570259,33.2439024 117.818609,33.2439024 C116.06669,33.2439024 114.591859,33.8874281 113.434765,35.1568349 C112.389369,36.3150019 111.859296,37.6994105 111.859296,39.2715475 C111.859296,40.8511186 112.419137,42.2513801 113.52335,43.4333714 C114.627922,44.6165271 116.072716,45.216524 117.821667,45.216524 L117.822387,45.216524 C119.88341,45.0433946 121.34691,44.2396369 122.175654,42.8266571 L122.175654,45.2682927 L123.799956,45.2682927 L123.807781,45.2331831 C123.813716,45.2064927 123.829365,45.1354676 123.80886,39.2715475 C123.80886,37.6863339 123.268175,36.2982532 122.202005,35.1462663" id="Fill-18" fill="#413F48" mask="url(#mask-4)"></path>
                <path d="M126.627353,29.7073171 C126.242573,29.7073171 125.909252,29.8462648 125.636792,30.1201961 C125.364332,30.3941274 125.226131,30.7292486 125.226131,31.1161067 C125.226131,31.5029648 125.364231,31.8399155 125.636489,32.117506 C125.908746,32.3956048 126.242067,32.5365854 126.627353,32.5365854 C127.012133,32.5365854 127.347375,32.3957064 127.623575,32.117811 C127.900079,31.8400172 128.040201,31.5029648 128.040201,31.1161067 C128.040201,30.7292486 127.899978,30.3940258 127.623373,30.1199928 C127.346667,29.8461631 127.011627,29.7073171 126.627353,29.7073171" id="Fill-19" fill="#413F48" mask="url(#mask-4)"></path>
                <polygon id="Fill-20" fill="#413F48" mask="url(#mask-4)" points="125.929648 45.2682927 127.336683 45.2682927 127.336683 33.9512195 125.929648 33.9512195"></polygon>
                <path d="M96.9705297,19.3073718 C96.9705297,17.2728299 98.4867122,15.6176951 100.350262,15.6176951 L100.603015,15.6176951 L100.603015,13.4390244 L100.350262,13.4390244 C97.3863088,13.4390244 94.9748744,16.0716039 94.9748744,19.3073718 L94.9748744,26.1707317 L96.9705297,26.1707317 L96.9705297,19.3073718 Z" id="Fill-21" fill="#413F48" mask="url(#mask-4)"></path>
                <path d="M134.723618,33.2439024 C131.814226,33.2439024 129.447236,35.5499413 129.447236,38.3844158 L129.447236,45.2682927 L131.046457,45.2682927 L131.046457,38.3844158 C131.046457,36.4089732 132.695963,34.8019426 134.723618,34.8019426 C136.751273,34.8019426 138.400779,36.4089732 138.400779,38.3844158 L138.400779,45.2682927 L140,45.2682927 L140,38.3844158 C140,35.5499413 137.63301,33.2439024 134.723618,33.2439024" id="Fill-22" fill="#413F48" mask="url(#mask-4)"></path>
                <path d="M49.4223754,15.5609756 L49.4223754,29.3893092 L49.4167475,29.3893092 C49.3400111,33.5642201 47.3597846,36.7063592 43.5434244,38.4521414 C39.6030711,40.2548318 35.8223545,39.6002531 32.6591912,36.7031329 C31.0211069,35.2029073 29.7666151,33.264175 28.4279723,31.4571829 C27.0693191,29.6228569 25.8979062,27.6465741 24.5009295,25.844511 C23.2173154,24.1885273 21.4699779,23.283194 19.2969725,23.3505877 C16.8180044,23.4273913 14.6123035,25.0377589 13.79277,27.417597 C12.9765419,29.7880251 13.7183563,32.4786626 15.6152359,34.0288957 C17.573576,35.6294052 20.3924531,35.900324 22.4828262,34.4915997 C23.528638,33.7868342 24.3639833,32.7659818 25.2850874,31.8781243 C25.4851915,31.6852638 25.6445601,31.4502822 25.8801291,31.1654723 C26.6971613,32.4140472 27.446033,33.5585741 28.1929393,34.700054 C26.0091248,38.0553971 21.6761566,39.9750406 17.8042317,39.2379226 C16.2918379,39.0152189 14.7273633,38.3221935 13.3668342,37.2454187 L13.3668342,46.855645 L13.3668342,52.8357556 L15.920484,48.8689406 C19.7725771,51.5060754 24.4281238,53.0487805 29.4436792,53.0487805 C42.7116525,53.0487805 53.4673367,42.7961637 53.4673367,29.4855603 C53.4673367,24.5318585 51.9768292,19.3902252 49.4223754,15.5609756" id="Fill-23" fill="#5EC7F2" mask="url(#mask-4)"></path>
                <path d="M25.7542332,22.1254453 C27.34756,23.6426052 28.6161647,25.5201232 29.9322047,27.308291 C31.1330957,28.9400736 32.1358482,30.7190107 33.3424564,32.3461332 C34.6997679,34.1765115 36.4186062,35.4843215 38.8548704,35.4855762 C41.4457683,35.4868308 43.7133735,33.9194842 44.5815026,31.4917953 C45.4403411,29.0902751 44.7113914,26.374013 42.7865533,24.8024543 C40.80758,23.1867134 37.9014292,22.9794247 35.7420051,24.3609911 C35.1241845,24.7562109 34.5710404,25.2745671 34.0545223,25.801706 C33.537111,26.3295619 33.1023318,26.9388815 32.5478477,27.6143398 C31.7428764,26.4491137 30.9548782,25.3083535 30.1782252,24.1842624 C33.3675587,19.8495709 37.6790817,18.7124851 41.8498173,19.8691078 C43.0148861,20.1922739 44.0867816,20.7322284 45.0251256,21.4401288 L45.0251256,11.1443402 L45.0251256,4.95121951 L42.8677562,9.4148728 C38.8904245,6.57206866 34.0170029,4.90954668 28.7515028,4.95202608 C15.6292473,5.0577765 4.95174253,15.8365219 4.92467491,29.001373 C4.91449106,33.9743311 6.40642593,38.5966996 8.96972029,42.4390244 L8.96972029,28.6107238 L9.00321982,28.6107238 C9.2633548,25.4633047 11.038115,22.5744364 13.8683336,20.8699728 C17.6329656,18.6027018 22.4726197,19.0005205 25.7542332,22.1254453" id="Fill-24" fill="#5EC7F2" mask="url(#mask-4)"></path>
            </g>
        </g>
    </g>
</svg>