<?xml version="1.0" encoding="UTF-8"?>
<svg width="21px" height="17px" viewBox="0 0 21 17" version="1.1" xmlns="http://www.w3.org/2000/svg" xmlns:xlink="http://www.w3.org/1999/xlink">
    <!-- Generator: Sketch 49.3 (51167) - http://www.bohemiancoding.com/sketch -->
    <title>medium</title>
    <desc>Created with Sketch.</desc>
    <defs></defs>
    <g id="Landing-page" stroke="none" stroke-width="1" fill="none" fill-rule="evenodd">
        <g id="landing2-copy" transform="translate(-745.000000, -4553.000000)" fill="#898989" fill-rule="nonzero">
            <g id="Group-3" transform="translate(584.000000, 4533.000000)">
                <g id="medium" transform="translate(161.500000, 20.500000)">
                    <path d="M20,2.35791717 L19.2089844,2.35791717 C18.9153125,2.35791717 18.5,2.78604805 18.5,3.06007391 L18.5,12.9936892 C18.5,13.2680308 18.9153125,13.6420828 19.2089844,13.6420828 L20,13.6420828 L20,16 L12.8333594,16 L12.8333594,13.6420828 L14.3333594,13.6420828 L14.3333594,3.19996842 L14.2598437,3.19996842 L10.7570313,16 L8.04515625,16 L4.5875,3.19996842 L4.5,3.19996842 L4.5,13.6420828 L6,13.6420828 L6,16 L0,16 L0,13.6420828 L0.768359375,13.6420828 C1.0846875,13.6420828 1.5,13.2680308 1.5,12.9936892 L1.5,3.05999497 C1.5,2.7859691 1.0846875,2.35783823 0.768359375,2.35783823 L0,2.35783823 L0,0 L7.50265625,0 L9.9659375,9.26311634 L10.0339062,9.26311634 L12.5197656,0 L20,0 L20,2.35791717" id="Shape"></path>
                </g>
            </g>
        </g>
    </g>
</svg>